<?xml version="1.0" standalone="no"?>
<!DOCTYPE svg PUBLIC "-//W3C//DTD SVG 20010904//EN"
 "http://www.w3.org/TR/2001/REC-SVG-20010904/DTD/svg10.dtd">
<svg version="1.0" xmlns="http://www.w3.org/2000/svg"
 width="1536.000000pt" height="1024.000000pt" viewBox="0 0 1536.000000 1024.000000"
 preserveAspectRatio="xMidYMid meet">

<g transform="translate(0.000000,1024.000000) scale(0.100000,-0.100000)"
fill="#000000" stroke="none">
<path d="M4269 6877 c-88 -33 -155 -95 -193 -176 -15 -34 -21 -69 -22 -136
l-2 -90 -103 -21 -103 -20 3 -129 c1 -71 4 -132 7 -136 2 -3 20 -9 41 -12 21
-3 103 -15 183 -27 80 -11 215 -32 300 -45 85 -14 173 -28 195 -31 74 -10 89
-13 239 -39 184 -31 196 -31 196 -5 0 12 7 33 16 48 11 18 12 22 2 10 -8 -10
-19 -14 -23 -10 -5 4 -5 1 -1 -5 4 -7 2 -13 -4 -13 -6 0 -8 -4 -5 -10 8 -13
-5 -13 -25 0 -13 8 -12 10 3 10 14 0 16 5 11 25 -5 21 -3 24 12 19 17 -5 18
-4 2 8 -10 9 -13 19 -8 28 6 11 2 15 -17 17 -18 1 -22 -2 -13 -7 16 -10 22
-38 9 -46 -5 -3 -9 4 -9 14 0 11 -6 22 -14 25 -7 3 -12 16 -11 30 l3 25 -59
-23 c-32 -13 -83 -37 -113 -54 -29 -17 -58 -31 -63 -31 -5 0 -20 30 -33 67
-13 36 -41 98 -63 137 -21 39 -45 87 -53 106 l-14 35 3 -30 c1 -19 -3 -30 -10
-30 -7 0 -12 2 -11 5 2 3 -5 16 -14 29 -9 13 -14 30 -11 39 4 10 2 13 -5 8 -7
-4 -12 -1 -12 6 0 8 -10 15 -22 15 -13 1 -24 7 -26 13 -2 5 -28 10 -58 10 -31
0 -54 4 -54 11 0 5 -4 7 -10 4 -5 -3 -18 -1 -27 5 -17 10 -16 10 2 9 11 -1 28
1 38 6 9 4 24 5 32 1 8 -3 15 0 15 6 0 6 8 4 18 -5 10 -10 22 -17 27 -17 5 0
0 6 -10 14 -18 13 -18 14 1 19 19 6 54 13 109 22 17 2 46 9 65 15 48 14 48 14
55 -23 6 -30 9 -33 36 -29 16 2 27 8 24 12 -3 5 3 11 13 15 14 4 18 12 15 29
-4 17 0 25 14 29 16 4 16 5 -3 6 -15 1 -28 18 -49 62 -37 77 -108 149 -180
185 -68 32 -178 42 -236 21z m199 -86 c23 -12 57 -35 75 -51 35 -31 96 -134
86 -145 -10 -9 -491 -105 -500 -99 -12 7 -11 101 1 146 17 59 69 120 130 151
47 24 64 28 111 24 30 -3 74 -14 97 -26z m-310 -336 c-3 -3 -9 2 -12 12 -6 14
-5 15 5 6 7 -7 10 -15 7 -18z m405 -119 c4 -10 0 -12 -14 -9 -10 3 -16 9 -13
14 8 13 21 11 27 -5z m430 -333 c-7 -2 -19 -2 -25 0 -7 3 -2 5 12 5 14 0 19
-2 13 -5z"/>
<path d="M3426 6777 c3 -10 9 -15 12 -12 3 3 0 11 -7 18 -10 9 -11 8 -5 -6z"/>
<path d="M3334 6748 l-29 -33 33 29 c30 28 37 36 29 36 -2 0 -16 -15 -33 -32z"/>
<path d="M3250 6690 c0 -5 9 -12 21 -15 36 -12 91 -68 113 -116 l22 -46 26 56
26 56 -28 -33 -28 -33 -28 42 c-27 40 -124 110 -124 89z"/>
<path d="M3490 6659 c-17 -13 -18 -17 -5 -10 33 17 51 31 40 31 -5 0 -21 -10
-35 -21z"/>
<path d="M4918 6643 c7 -3 16 -2 19 1 4 3 -2 6 -13 5 -11 0 -14 -3 -6 -6z"/>
<path d="M4818 6623 c7 -3 16 -2 19 1 4 3 -2 6 -13 5 -11 0 -14 -3 -6 -6z"/>
<path d="M4768 6613 c6 -2 18 -2 25 0 6 3 1 5 -13 5 -14 0 -19 -2 -12 -5z"/>
<path d="M4718 6533 c7 -3 16 -2 19 1 4 3 -2 6 -13 5 -11 0 -14 -3 -6 -6z"/>
<path d="M3633 6483 l-41 -42 23 -15 c13 -8 29 -29 36 -46 13 -29 29 -40 29
-20 0 5 14 25 30 44 l31 35 -33 43 -33 43 -42 -42z"/>
<path d="M4585 6493 c-34 -18 -45 -31 -44 -53 0 -9 4 -6 9 7 5 12 26 31 47 42
21 11 34 20 28 20 -5 0 -23 -7 -40 -16z"/>
<path d="M4443 6483 c0 -8 6 -9 19 -2 10 5 18 11 18 12 0 2 -8 3 -18 3 -10 0
-19 -6 -19 -13z"/>
<path d="M2614 6441 c-62 -38 -70 -128 -14 -175 32 -27 54 -32 274 -71 82 -14
156 -30 164 -34 9 -5 46 -98 83 -207 37 -110 116 -338 174 -509 59 -170 127
-370 152 -443 37 -110 48 -132 62 -127 55 22 402 137 405 134 2 -2 6 -23 10
-45 l6 -42 -103 -27 c-208 -55 -235 -64 -256 -91 -26 -33 -26 -67 -1 -122 32
-70 69 -110 133 -142 l60 -30 739 0 c789 0 791 0 817 48 12 23 15 81 5 107
-18 45 -21 45 -771 45 -691 0 -709 1 -741 20 -34 21 -50 46 -37 58 3 4 347 9
763 12 677 5 762 7 807 22 67 23 126 62 154 103 20 29 84 183 106 255 7 23 6
23 -19 -7 -35 -41 -50 -46 -529 -169 -33 -9 -61 -13 -65 -10 -3 3 2 6 11 6 9
0 18 4 22 9 3 6 -15 8 -45 5 -27 -2 -50 0 -50 5 0 4 -11 6 -25 3 -14 -2 -25 0
-25 5 0 5 -16 10 -35 11 -20 1 -40 4 -46 7 -5 4 -27 -8 -49 -25 -22 -17 -40
-29 -40 -26 0 2 27 25 59 51 33 25 66 52 74 59 8 8 33 20 55 27 57 17 47 22
-15 8 -46 -11 -52 -10 -82 12 -17 13 -29 29 -27 36 3 8 -2 13 -12 13 -16 0
-162 145 -162 162 0 4 12 8 28 8 42 0 72 11 72 26 0 8 4 14 10 14 5 0 7 7 4
15 -4 8 -16 15 -28 15 -19 1 -19 2 7 18 15 9 27 22 27 30 0 7 7 15 15 18 8 4
15 10 15 14 0 9 -60 3 -100 -10 -14 -4 -73 -21 -132 -36 -60 -16 -108 -33
-108 -38 0 -6 70 -79 155 -162 85 -84 155 -154 155 -157 0 -3 -37 -28 -82 -57
-46 -29 -94 -62 -106 -74 l-24 -21 -25 30 c-14 17 -76 85 -136 152 l-110 123
-23 -32 c-13 -17 -51 -73 -85 -124 -34 -52 -65 -92 -69 -89 -10 6 -37 96 -165
540 -59 203 -109 373 -111 377 -2 3 -1 9 4 12 12 7 74 -16 497 -189 99 -41
250 -101 335 -135 85 -34 161 -64 168 -67 6 -3 12 0 12 6 0 12 -49 35 -125 58
l-50 15 90 23 c105 27 452 105 610 139 122 25 121 27 -35 50 -58 9 -179 27
-270 41 -262 41 -482 74 -665 101 -93 14 -179 27 -190 29 -11 1 -56 8 -100 15
-44 6 -136 20 -205 31 -174 27 -414 58 -417 55 -2 -2 11 -47 28 -102 46 -146
59 -198 74 -292 14 -87 9 -122 -19 -122 -9 0 -54 120 -132 352 -77 230 -125
360 -139 374 -12 11 -43 28 -71 37 -41 14 -487 87 -527 87 -6 0 -26 -9 -43
-19z m889 -338 c-7 -2 -19 -2 -25 0 -7 3 -2 5 12 5 14 0 19 -2 13 -5z m312
-730 c10 -38 20 -75 22 -83 2 -8 -3 -3 -12 13 -15 26 -35 36 -35 18 0 -14 -31
-7 -44 10 -14 18 -36 23 -36 8 0 -7 -11 -4 -27 7 -19 12 -46 17 -88 17 -33 -1
-55 1 -50 3 12 5 237 71 246 73 3 1 14 -29 24 -66z m-300 -23 c-3 -5 -12 -10
-18 -10 -7 0 -6 4 3 10 19 12 23 12 15 0z"/>
<path d="M3766 5385 c-9 -24 -8 -25 15 -25 14 0 19 5 17 17 -4 23 -24 27 -32
8z"/>
<path d="M4700 6439 c0 -6 6 -9 14 -6 7 3 20 0 27 -6 11 -10 11 -9 0 6 -15 19
-41 23 -41 6z"/>
<path d="M4670 6425 c-10 -12 -10 -22 -2 -39 14 -32 49 -39 73 -15 23 23 25
41 4 33 -8 -4 -15 -10 -15 -14 0 -4 -9 -10 -20 -13 -29 -8 -46 25 -27 51 13
17 2 15 -13 -3z"/>
<path d="M4505 6410 c3 -5 8 -10 11 -10 2 0 4 5 4 10 0 6 -5 10 -11 10 -5 0
-7 -4 -4 -10z"/>
<path d="M4950 6231 c0 -6 5 -13 10 -16 6 -3 10 1 10 9 0 9 -4 16 -10 16 -5 0
-10 -4 -10 -9z"/>
<path d="M4950 6160 c0 -5 5 -10 11 -10 5 0 7 5 4 10 -3 6 -8 10 -11 10 -2 0
-4 -4 -4 -10z"/>
<path d="M5100 6115 c0 -5 5 -17 10 -25 5 -8 10 -10 10 -5 0 6 -5 17 -10 25
-5 8 -10 11 -10 5z"/>
<path d="M5220 6084 c1 -23 30 -128 37 -135 4 -4 71 -15 148 -24 77 -8 172
-20 212 -25 64 -9 79 -7 152 16 88 28 124 59 119 102 -2 14 -14 33 -28 43 -23
17 -56 20 -332 26 -184 4 -308 3 -308 -3z"/>
<path d="M5020 6000 c0 -13 7 -20 19 -20 10 0 33 -3 50 -6 17 -4 31 -2 31 3 0
5 -8 10 -17 10 -59 -1 -75 3 -69 18 3 8 1 15 -4 15 -6 0 -10 -9 -10 -20z"/>
<path d="M5498 5843 c6 -2 18 -2 25 0 6 3 1 5 -13 5 -14 0 -19 -2 -12 -5z"/>
<path d="M7458 5773 l-48 -4 0 -475 0 -474 100 0 100 0 0 216 0 216 29 29 c21
21 39 29 64 29 91 0 97 -18 97 -280 l0 -210 101 0 100 0 -3 263 -3 262 -27 47
c-36 61 -91 88 -176 88 -67 0 -123 -18 -159 -52 l-23 -21 0 186 0 187 -52 -2
c-29 -1 -74 -3 -100 -5z m-31 -35 c-3 -8 -6 -5 -6 6 -1 11 2 17 5 13 3 -3 4
-12 1 -19z"/>
<path d="M6913 5760 c-176 -19 -289 -158 -254 -314 28 -127 96 -174 355 -247
94 -26 141 -99 101 -156 -44 -63 -211 -70 -331 -14 -36 17 -68 31 -70 31 -2 0
-20 -32 -39 -71 -41 -81 -40 -86 37 -125 147 -75 377 -71 499 7 140 89 167
314 52 420 -41 39 -96 64 -223 100 -172 50 -218 102 -150 171 l31 30 97 -4
c77 -4 109 -10 156 -31 33 -15 60 -26 61 -25 2 2 17 36 35 77 34 79 35 76 -20
105 -76 41 -212 59 -337 46z"/>
<path d="M11143 5763 c-107 -5 -89 -18 22 -16 l95 1 -2 -156 c-1 -87 -3 -127
-5 -90 -4 66 -4 67 -28 58 -17 -7 -27 -5 -36 7 -12 13 -15 13 -29 -5 -19 -23
-34 -17 -44 16 -11 34 -24 26 -24 -15 0 -127 -7 -138 -12 -18 -4 87 -7 -22 -8
-292 l-2 -433 99 0 c99 0 100 0 103 25 l3 25 39 -27 c34 -25 47 -28 107 -27
125 2 223 72 271 193 32 81 32 236 0 305 -32 71 -67 113 -112 136 -46 24 -55
25 -38 6 7 -8 17 -11 22 -8 5 3 6 0 2 -6 -4 -7 -17 -7 -41 -1 -19 6 -39 8 -44
4 -5 -3 -12 1 -14 7 -4 10 -6 10 -6 1 -1 -17 -21 -16 -60 3 -26 13 -38 14 -57
5 -14 -6 -23 -15 -20 -20 3 -4 -4 -17 -17 -27 l-22 -19 19 23 c22 26 11 30
-16 5 -17 -16 -18 -10 -18 165 l0 182 -27 -2 c-16 -1 -61 -4 -100 -5z m45
-224 c-3 -8 -7 -3 -11 10 -4 17 -3 21 5 13 5 -5 8 -16 6 -23z m202 -89 c12 -8
11 -10 -7 -10 -13 0 -23 5 -23 10 0 13 11 13 30 0z m248 -75 c-3 -3 -13 7 -23
22 l-17 28 23 -22 c12 -12 20 -25 17 -28z m-193 -67 c39 -30 55 -77 55 -155 0
-84 -26 -145 -69 -167 -55 -29 -127 -15 -151 29 -8 15 -11 61 -8 139 l3 118
33 29 c41 36 96 39 137 7z m252 -70 c-3 -8 -6 -5 -6 6 -1 11 2 17 5 13 3 -3 4
-12 1 -19z"/>
<path d="M9560 5285 l0 -465 105 0 105 0 0 190 0 190 150 0 150 0 0 -190 0
-190 105 0 105 0 0 465 0 465 -105 0 -105 0 0 -184 c0 -102 -4 -187 -8 -190
-17 -11 -239 -10 -274 0 -16 5 -18 23 -18 190 l0 184 -105 0 -105 0 0 -465z
m199 273 c-1 -179 -5 -223 -11 -103 -3 60 -3 60 -35 63 -29 3 -33 7 -34 35 -1
18 0 42 1 55 1 15 -4 22 -17 22 -17 1 -17 1 0 14 9 7 17 21 17 31 0 10 -3 15
-7 11 -5 -4 -8 -13 -8 -19 0 -7 -10 -13 -22 -15 -13 -2 -23 1 -23 7 0 6 5 10
11 9 6 -2 13 2 16 8 2 7 -6 10 -23 6 -19 -3 -25 -1 -22 8 2 8 10 16 18 18 7 3
10 0 6 -7 -4 -6 -4 -11 1 -11 12 0 39 20 28 20 -5 0 -3 4 5 10 10 6 5 9 -18 8
-18 -1 -35 2 -39 5 -3 4 30 7 75 7 l82 0 -1 -182z m485 170 c-5 -8 -2 -9 10
-5 15 6 17 -6 15 -154 -1 -136 -3 -158 -15 -148 -7 6 -11 15 -8 20 3 5 -4 9
-15 9 -11 0 -23 5 -27 12 -4 7 -3 8 4 4 8 -5 10 -2 6 8 -7 18 -35 22 -31 5 1
-6 -6 -13 -16 -14 -11 -2 -14 1 -10 8 4 7 8 21 10 32 1 11 -1 14 -4 7 -7 -17
-49 -33 -68 -26 -12 5 -15 29 -15 130 l0 124 86 0 c62 0 83 -3 78 -12z m-655
-70 c1 -10 -3 -18 -9 -18 -5 0 -10 17 -9 38 0 30 2 33 9 17 5 -11 9 -28 9 -37z
m17 -40 c4 -6 3 -8 -3 -5 -12 8 -26 -20 -18 -33 3 -5 1 -11 -5 -15 -11 -7 -13
9 -4 43 7 24 19 28 30 10z m52 -28 c-7 -10 -14 -17 -17 -15 -4 4 18 35 25 35
2 0 -1 -9 -8 -20z m-74 -85 c-4 -8 -8 -15 -10 -15 -2 0 -4 7 -4 15 0 8 4 15
10 15 5 0 7 -7 4 -15z m503 -57 c-3 -7 -5 -2 -5 12 0 14 2 19 5 13 2 -7 2 -19
0 -25z m111 -23 c-3 -3 -9 2 -12 12 -6 14 -5 15 5 6 7 -7 10 -15 7 -18z"/>
<path d="M9688 5723 c7 -3 16 -2 19 1 4 3 -2 6 -13 5 -11 0 -14 -3 -6 -6z"/>
<path d="M9728 5723 c7 -3 16 -2 19 1 4 3 -2 6 -13 5 -11 0 -14 -3 -6 -6z"/>
<path d="M10090 5510 c0 -5 5 -10 10 -10 6 0 10 5 10 10 0 6 -4 10 -10 10 -5
0 -10 -4 -10 -10z"/>
<path d="M11225 5580 c4 -6 11 -8 16 -5 14 9 11 15 -7 15 -8 0 -12 -5 -9 -10z"/>
<path d="M6200 5485 c-61 -17 -134 -61 -125 -75 3 -5 0 -12 -6 -16 -8 -4 -9
-3 -5 4 10 17 -9 15 -24 -3 -6 -8 -9 -19 -5 -25 4 -6 1 -9 -7 -8 -7 2 -26 -23
-43 -57 -27 -54 -30 -69 -30 -155 0 -83 3 -102 27 -151 57 -115 153 -178 283
-187 108 -7 227 27 304 86 l23 19 -31 61 -31 61 -52 -24 c-109 -51 -222 -42
-278 22 -17 18 -30 38 -30 42 0 5 30 12 68 16 247 25 358 104 337 241 -8 56
-53 110 -114 137 -60 26 -188 32 -261 12z m168 -141 c26 -18 29 -56 6 -78 -17
-18 -95 -42 -166 -52 -46 -6 -48 -5 -48 18 0 36 40 90 80 110 43 22 98 23 128
2z"/>
<path d="M8265 5462 c-114 -37 -196 -165 -197 -307 -2 -224 143 -360 364 -342
196 17 324 196 288 405 -21 125 -103 225 -207 251 -62 16 -190 12 -248 -7z
m217 -171 c48 -53 59 -130 33 -219 -19 -64 -58 -95 -117 -94 -82 1 -128 64
-128 175 0 120 53 183 145 173 28 -3 48 -14 67 -35z"/>
<path d="M8883 5473 l-93 -4 0 -459 0 -460 43 1 c23 1 69 4 101 8 l59 6 -2
143 c-1 78 0 142 2 142 3 0 24 -9 48 -20 80 -36 196 -19 277 40 109 78 152
282 96 445 -22 63 -96 139 -150 154 -75 21 -225 7 -208 -20 3 -5 -2 -6 -10 -3
-9 3 -20 -3 -28 -15 -19 -30 -28 -26 -28 14 0 19 -3 34 -7 33 -5 -1 -50 -4
-100 -5z m290 -163 c37 -30 61 -109 53 -182 -11 -106 -47 -149 -130 -156 -49
-4 -57 -2 -81 22 -26 26 -27 28 -23 152 l3 126 33 29 c40 36 105 40 145 9z"/>
<path d="M11393 5474 c7 -7 117 -7 125 1 3 3 -25 5 -63 5 -38 0 -66 -3 -62 -6z"/>
<path d="M10380 5228 c0 -134 5 -261 10 -282 12 -54 38 -87 91 -114 73 -39
207 -21 272 36 16 14 17 13 17 -16 l0 -32 100 0 100 0 0 325 0 325 -100 0
-100 0 0 -200 c0 -213 -8 -257 -48 -279 -33 -18 -90 -13 -112 9 -19 19 -20 33
-20 245 l0 225 -105 0 -105 0 0 -242z m198 140 l-2 -93 -5 85 -6 85 -42 3
c-39 3 -43 1 -43 -19 0 -22 0 -22 -22 -3 -12 10 -18 13 -14 7 4 -7 2 -13 -3
-13 -6 0 -11 4 -11 8 0 5 -7 9 -15 9 -11 0 -15 -12 -16 -41 -2 -32 -3 -35 -6
-12 -3 15 -2 39 1 52 6 23 10 24 96 24 l90 0 -2 -92z m370 87 c-11 -11 -118
-16 -135 -6 -14 8 1 10 61 11 44 0 77 -2 74 -5z m9 -37 c-3 -8 -6 -5 -6 6 -1
11 2 17 5 13 3 -3 4 -12 1 -19z"/>
<path d="M5068 5183 c7 -3 16 -2 19 1 4 3 -2 6 -13 5 -11 0 -14 -3 -6 -6z"/>
<path d="M4970 5160 c-20 -6 -21 -8 -5 -8 11 0 29 3 40 8 25 11 -1 11 -35 0z"/>
<path d="M4008 4446 c-88 -31 -131 -92 -132 -181 0 -60 23 -105 77 -148 31
-26 49 -32 101 -35 117 -8 194 39 222 134 14 49 14 59 0 108 -31 107 -154 162
-268 122z m119 -118 c18 -15 16 -73 -3 -92 -20 -21 -63 -20 -86 1 -42 38 -4
122 50 108 15 -4 33 -11 39 -17z"/>
<path d="M4918 4445 c-116 -37 -165 -183 -95 -286 78 -115 289 -103 355 21 30
57 26 143 -9 195 -49 70 -156 100 -251 70z m122 -115 c39 -39 15 -110 -38
-110 -58 0 -83 70 -40 110 28 25 52 26 78 0z"/>
</g>
</svg>
